<svg xmlns="http://www.w3.org/2000/svg" clip-rule="evenodd" fill-rule="evenodd" image-rendering="optimizeQuality" shape-rendering="geometricPrecision" text-rendering="geometricPrecision" viewBox="0 0 762.11 868.82" style="fill: rgb(0, 0, 0);" original_string_length="1834"><g><path d="M0.77 113.55c-5.92,158.1 22.37,299.82 84.87,425.18 3.91,8.18 7.95,16.3 12.13,24.33 30.98,59.68 68.67,114.48 111.85,163.06 43.18,48.58 91.89,90.96 144.94,125.81l24.66 16.21c1.28,0.88 3.01,0.95 4.39,0.04l24.72 -16.25c53.05,-34.84 101.76,-77.23 144.94,-125.81 43.18,-48.58 80.86,-103.38 111.85,-163.06 31.72,-61.09 55.96,-126.62 72.28,-194.7 16.32,-68.08 24.71,-138.64 24.71,-209.79l0 -45.03c0,-2.19 -1.77,-3.96 -3.96,-3.96l-45.02 0c-53.56,0 -106.67,-8.01 -157.91,-23.59 -51.28,-15.6 -100.72,-38.78 -146.9,-69.11l-24.66 -16.2c-1.28,-0.88 -3.01,-0.95 -4.39,-0.04l-24.72 16.24c-46.17,30.33 -95.62,53.51 -146.9,69.11 -51.24,15.58 -104.35,23.59 -157.91,23.59l-45.02 0c-2.19,0 -3.96,1.77 -3.96,3.96zm300.18 443.58c-0.63,-11.01 17.05,-109.72 21.18,-133.58 0.73,-4.22 3.64,-18.63 3.33,-21.68 -0.62,-6.26 -38.85,-44.39 -7.67,-98.14 1.99,-3.42 1.7,-3.05 2.6,-3.75 14.37,-20.56 38.09,-34.09 65,-34.41l0 -39.78 -0.01 0c0,-0.77 -0.22,-1.54 -0.69,-2.23 -1.23,-1.8 -3.69,-2.26 -5.49,-1.04 -0.13,0.09 -40.53,29.5 -226.88,-18.74 40.63,-4.66 75.46,-13.61 109.22,-26.69 39.01,-15.12 76.51,-35.71 119.88,-61.56 43.7,25.89 89.66,46.51 137.08,61.62 46.96,14.96 95.31,24.51 144.25,28.4 -6.51,110.81 -35.91,217.05 -84.13,310.68 -47.48,92.19 -113.19,172.14 -193.24,232.17l0 -191.18 -84.44 -0.1z" style="fill: rgb(49, 130, 206);"/><path d="M385.4 265.56l0 291.67 84.43 0.1c0.91,-15.76 -17.59,-106.64 -21.52,-135.36 -0.65,-4.77 -3.72,-17.74 -2.92,-21.26 13.32,-14.35 21.46,-33.58 21.46,-54.71 0,-44.44 -36.02,-80.46 -80.46,-80.46 -0.33,0 -0.66,0 -0.99,0.01z" style="fill: rgb(56, 161, 105);"/></g></svg>